<?xml version="1.0" encoding="UTF-8" standalone="no" ?>
<svg width="256" height="256" viewBox="0 0 1em 1em" xmlns="http://www.w3.org/2000/svg" preserveAspectRatio="xMidYMid">
  <path d="M0 0h256v256H0V0z" fill="#F7DF1E"/>
  <path d="M67.312 213.932l19.59-11.856c3.78 6.7 7.218 12.37 15.465 12.37 7.905 0 12.89-3.09 12.89-15.12V117.53h24.057v82.137c0 24.917-14.606 36.26-35.916 36.26-19.245 0-30.416-9.968-36.087-21.997M152.38 211.354l19.59-11.34c5.156 8.42 11.858 14.606 23.714 14.606 9.97 0 16.325-4.984 16.325-11.858 0-8.248-6.53-11.17-17.53-15.98l-6.012-2.58c-17.357-7.387-28.87-16.667-28.87-36.257 0-18.044 13.747-31.792 35.228-31.792 15.294 0 26.292 5.328 34.196 19.247l-18.73 12.03c-4.126-7.39-8.592-10.31-15.466-10.31-7.046 0-11.514 4.467-11.514 10.31 0 7.216 4.468 10.138 14.778 14.607l6.014 2.577c20.45 8.765 31.963 17.7 31.963 37.804 0 21.654-17.012 33.51-39.867 33.51-22.34 0-36.774-10.654-43.82-24.574"/>
</svg>
