<?xml version="1.0" encoding="UTF-8"?>
<svg width="256" height="228" viewBox="0 0 1em 1em" xmlns="http://www.w3.org/2000/svg" preserveAspectRatio="xMidYMid">
  <path d="M210.483 73.824c-2.655-.914-5.407-1.78-8.24-2.597.465-1.9.893-3.777 1.273-5.62 6.238-30.282 2.16-54.677-11.77-62.71-13.354-7.7-35.195.33-57.253 19.527-2.12 1.846-4.248 3.8-6.375 5.848-1.416-1.355-2.83-2.664-4.24-3.917C100.757 3.83 77.587-4.822 63.672 3.233 50.33 10.957 46.38 33.89 51.995 62.588c.542 2.772 1.176 5.603 1.892 8.48-3.28.932-6.445 1.924-9.474 2.98C17.31 83.498 0 98.308 0 113.668c0 15.865 18.582 31.778 46.812 41.427 2.227.762 4.54 1.482 6.92 2.165-.772 3.113-1.444 6.163-2.01 9.138-5.353 28.2-1.172 50.59 12.135 58.266 13.744 7.926 36.812-.22 59.273-19.855 1.776-1.553 3.557-3.2 5.342-4.924 2.314 2.228 4.623 4.336 6.92 6.314 21.758 18.722 43.246 26.282 56.54 18.586 13.73-7.95 18.194-32.003 12.4-61.268-.442-2.235-.957-4.518-1.535-6.842 1.62-.48 3.21-.974 4.76-1.488 29.348-9.723 48.443-25.443 48.443-41.52 0-15.417-17.868-30.326-45.517-39.844zm-6.365 70.984c-1.4.463-2.836.91-4.3 1.345-3.24-10.257-7.612-21.163-12.963-32.432 5.106-11 9.31-21.766 12.46-31.956 2.618.758 5.16 1.557 7.61 2.4 23.688 8.156 38.14 20.213 38.14 29.504 0 9.896-15.607 22.743-40.947 31.14zm-10.514 20.834c2.562 12.94 2.927 24.64 1.23 33.787-1.524 8.218-4.59 13.697-8.382 15.892-8.067 4.67-25.32-1.4-43.927-17.412-2.133-1.836-4.28-3.795-6.437-5.87 7.214-7.89 14.423-17.06 21.46-27.246 12.375-1.098 24.067-2.894 34.67-5.345.522 2.106.986 4.172 1.386 6.192zM87.276 214.515c-7.882 2.783-14.16 2.863-17.955.675-8.074-4.657-11.43-22.636-6.852-46.752.525-2.762 1.15-5.6 1.87-8.5 10.485 2.32 22.092 3.99 34.497 4.995 7.084 9.967 14.5 19.128 21.976 27.15-1.632 1.576-3.26 3.077-4.876 4.492-9.933 8.682-19.886 14.842-28.658 17.94zM50.35 144.747c-12.484-4.267-22.793-9.812-29.86-15.863-6.35-5.437-9.554-10.836-9.554-15.216 0-9.322 13.897-21.212 37.076-29.293 2.813-.98 5.757-1.905 8.812-2.773 3.204 10.42 7.406 21.315 12.477 32.332-5.136 11.18-9.398 22.25-12.633 32.792-2.178-.627-4.288-1.286-6.318-1.98zm12.377-84.26c-4.81-24.587-1.616-43.134 6.425-47.79 8.564-4.957 27.502 2.112 47.463 19.836 1.276 1.133 2.557 2.318 3.84 3.545-7.437 7.987-14.786 17.08-21.807 26.988-12.04 1.116-23.565 2.908-34.16 5.31-.667-2.68-1.257-5.314-1.76-7.888zm110.427 27.268c-2.533-4.375-5.134-8.647-7.785-12.803 8.167 1.033 15.993 2.404 23.342 4.08-2.206 7.072-4.956 14.465-8.193 22.045-2.324-4.41-4.78-8.854-7.366-13.322zm-45.032-43.86c5.044 5.464 10.096 11.565 15.065 18.185-5.007-.236-10.076-.36-15.187-.36-5.063 0-10.094.12-15.07.354 4.974-6.56 10.07-12.652 15.192-18.18zM82.802 87.83c-2.53 4.388-4.94 8.81-7.227 13.24-3.184-7.554-5.91-14.98-8.134-22.153 7.305-1.634 15.094-2.97 23.21-3.984-2.69 4.194-5.31 8.497-7.848 12.897zm8.08 65.353c-8.384-.936-16.29-2.203-23.592-3.793 2.26-7.3 5.045-14.885 8.298-22.6 2.29 4.426 4.71 8.848 7.257 13.246 2.594 4.48 5.28 8.868 8.038 13.147zm37.543 31.03c-5.184-5.592-10.354-11.78-15.403-18.433 4.902.192 9.9.29 14.978.29 5.218 0 10.376-.117 15.453-.343-4.985 6.774-10.018 12.97-15.028 18.486zm52.198-57.817c3.422 7.8 6.306 15.345 8.596 22.52-7.423 1.694-15.437 3.058-23.88 4.07 2.657-4.21 5.28-8.556 7.858-13.025 2.607-4.522 5.084-9.05 7.425-13.564zm-16.898 8.1c-4.002 6.94-8.11 13.563-12.28 19.816-7.598.543-15.446.823-23.445.823-7.967 0-15.716-.248-23.178-.732-4.34-6.335-8.537-12.978-12.513-19.846-3.966-6.85-7.616-13.758-10.923-20.627 3.306-6.884 6.947-13.8 10.89-20.637 3.952-6.854 8.113-13.465 12.412-19.76 7.612-.576 15.42-.876 23.31-.876 7.926 0 15.743.303 23.354.883 4.233 6.25 8.366 12.838 12.335 19.695 4.013 6.934 7.7 13.803 11.035 20.54-3.325 6.853-7.004 13.792-11 20.722zm22.56-122.123c8.572 4.944 11.906 24.88 6.52 51.026-.344 1.667-.73 3.366-1.15 5.088-10.622-2.45-22.155-4.274-34.23-5.407-7.034-10.016-14.323-19.123-21.64-27.007 1.967-1.892 3.93-3.697 5.888-5.4 18.9-16.447 36.564-22.94 44.612-18.3zM128 90.808c12.625 0 22.86 10.235 22.86 22.86s-10.235 22.86-22.86 22.86-22.86-10.235-22.86-22.86 10.235-22.86 22.86-22.86z" fill="#00D8FF"/>
</svg>
